<?xml version="1.0" encoding="UTF-8" standalone="no"?>
<svg
   xmlns:dc="http://purl.org/dc/elements/1.1/"
   xmlns:cc="http://creativecommons.org/ns#"
   xmlns:rdf="http://www.w3.org/1999/02/22-rdf-syntax-ns#"
   xmlns:svg="http://www.w3.org/2000/svg"
   xmlns="http://www.w3.org/2000/svg"
   viewBox="0 0 155.84 89.933334"
   height="48"
   width="80"
   xml:space="preserve"
   id="svg2"
   version="1.1"><metadata
     id="metadata8"><rdf:RDF><cc:Work
         rdf:about=""><dc:format>image/svg+xml</dc:format><dc:type
           rdf:resource="http://purl.org/dc/dcmitype/StillImage" /></cc:Work></rdf:RDF></metadata><defs
     id="defs6" /><g
     transform="matrix(1.3333333,0,0,-1.3333333,0,89.933333)"
     id="g10"><g
       transform="scale(0.1)"
       id="g12"><path
         id="path14"
         style="fill:#fff200;fill-opacity:1;fill-rule:nonzero;stroke:none"
         d="M 293.258,355.988 H 163.602 c -2.61,-17.996 -14.547,-38.277 -26.387,-51.629 -19.738,-22.273 -30.61,-50.941 -30.61,-80.722 0,-66.41 53.407,-120.578 119.528,-121.809 -0.192,2.82 -0.285,5.594 -0.285,8.305 0,69.207 54.902,125.832 123.445,128.594 -3.043,24.261 -13.422,47.332 -29.648,65.636 -11.84,13.36 -23.778,33.637 -26.387,51.625" /><path
         id="path16"
         style="fill:#fff;fill-opacity:1;fill-rule:nonzero;stroke:none"
         d="m 507.734,404.633 c 12.059,0 21.157,10.465 21.157,24.793 0,14.332 -9.098,24.793 -21.157,24.793 -12.05,0 -21.152,-10.461 -21.152,-24.793 0,-14.328 9.102,-24.793 21.152,-24.793 z m -61.41,-86.66 v 168.316 h 39.805 v -6.824 c 8.414,6.371 18.652,10.008 30.25,10.008 30.48,0 52.316,-25.02 52.316,-60.047 0,-35.028 -21.836,-60.274 -52.316,-60.274 -11.598,0 -21.836,3.637 -30.25,10.235 v -61.414 h -39.805" /><path
         id="path18"
         style="fill:#fff;fill-opacity:1;fill-rule:nonzero;stroke:none"
         d="m 584.387,486.289 h 39.801 v -15.922 c 9.097,12.055 21.835,19.106 36.394,19.106 v -37.528 c -21.836,0 -36.394,-13.422 -36.394,-33.664 v -45.718 h -39.801 v 113.726" /><path
         id="path20"
         style="fill:#fff;fill-opacity:1;fill-rule:nonzero;stroke:none"
         d="m 674.227,486.289 h 39.804 V 372.563 h -39.804 z m 19.789,59.82 c 12.964,0 22.289,-9.324 22.289,-22.062 0,-12.965 -9.325,-22.289 -22.289,-22.289 -12.739,0 -22.063,9.324 -22.063,22.289 0,12.738 9.324,22.062 22.063,22.062" /><path
         id="path22"
         style="fill:#fff;fill-opacity:1;fill-rule:nonzero;stroke:none"
         d="m 884.164,440.117 c 0,8.871 -5.457,14.102 -14.328,14.102 -11.828,0 -20.246,-9.781 -20.246,-23.426 v -58.23 h -39.805 v 67.554 c 0,8.871 -5.23,14.102 -14.101,14.102 -12.055,0 -20.469,-9.781 -20.469,-23.426 v -58.23 h -39.809 v 113.726 h 39.809 v -9.098 c 9.324,7.961 21.152,12.282 34.801,12.282 14.097,0 25.246,-5.004 32.07,-13.871 10.008,8.867 23.652,13.871 39.121,13.871 26.156,0 42.762,-14.785 42.762,-38.664 v -78.246 h -39.805 v 67.554" /><path
         id="path24"
         style="fill:#fff;fill-opacity:1;fill-rule:nonzero;stroke:none"
         d="m 1021.77,442.164 c -2.5,8.645 -9.78,14.102 -20.02,14.102 -10.461,0 -18.422,-5.457 -22.285,-14.102 z m 36.16,-5.687 c 0,-5.231 -0.68,-10.692 -3.41,-17.286 h -75.969 c 3.414,-10.007 12.285,-16.605 25.479,-16.605 11.14,0 19.56,4.551 20.01,10.691 h 34.35 c -2.27,-25.476 -26.84,-43.898 -58.23,-43.898 -36.617,0 -60.73,25.246 -60.73,59.594 0,35.48 25.703,60.5 61.64,60.5 33.66,0 56.86,-21.832 56.86,-52.996" /><path
         id="path26"
         style="fill:#fff;fill-opacity:1;fill-rule:nonzero;stroke:none"
         d="m 446.324,315.703 h 39.805 V 183.551 c 0,-5.231 3.184,-8.641 8.414,-8.641 2.047,0 4.551,0.453 6.824,1.59 v -27.977 c -6.597,-3.636 -15.238,-5.683 -23.426,-5.683 -19.562,0 -31.617,11.371 -31.617,29.797 v 143.066" /><path
         id="path28"
         style="fill:#fff;fill-opacity:1;fill-rule:nonzero;stroke:none"
         d="M 514.785,258.84 H 554.59 V 145.113 h -39.805 z m 19.789,59.82 c 12.965,0 22.289,-9.324 22.289,-22.062 0,-12.965 -9.324,-22.293 -22.289,-22.293 -12.738,0 -22.062,9.328 -22.062,22.293 0,12.738 9.324,22.062 22.062,22.062" /><path
         id="path30"
         style="fill:#fff;fill-opacity:1;fill-rule:nonzero;stroke:none"
         d="m 631.238,177.184 c 12.055,0 21.153,10.461 21.153,24.793 0,14.328 -9.098,24.793 -21.153,24.793 -12.281,0 -21.152,-10.465 -21.152,-24.793 0,-14.332 8.871,-24.793 21.152,-24.793 z m 21.61,74.832 v 6.824 h 39.804 V 142.156 c 0,-33.89 -22.746,-55.0466 -62.324,-55.0466 -34.797,0 -57.773,15.9216 -57.773,41.1716 0,3.641 0.457,6.598 1.824,9.782 h 36.617 c -0.683,-1.594 -0.91,-3.184 -0.91,-4.325 0,-6.593 7.961,-11.144 20.469,-11.144 15.695,0 22.293,7.281 22.293,20.015 v 9.329 c -8.414,-6.598 -18.653,-10.239 -30.25,-10.239 -30.481,0 -52.317,25.25 -52.317,60.278 0,35.027 21.836,60.046 52.317,60.046 11.597,0 21.836,-3.636 30.25,-10.007" /><path
         id="path32"
         style="fill:#fff;fill-opacity:1;fill-rule:nonzero;stroke:none"
         d="m 714.027,315.703 h 39.809 v -64.824 c 9.324,7.051 21.152,11.144 34.344,11.144 25.25,0 41.172,-15.238 41.172,-39.804 v -77.106 h -39.809 v 67.325 c 0,8.871 -5.457,14.332 -14.328,14.332 -12.512,0 -21.379,-10.465 -21.379,-24.567 v -57.09 h -39.809 v 170.59" /><path
         id="path34"
         style="fill:#fff;fill-opacity:1;fill-rule:nonzero;stroke:none"
         d="m 897.355,227.68 v -37.989 c 0,-8.414 5.235,-13.871 14.106,-13.871 3.637,0 7.961,0.907 10.234,2.953 V 149.66 c -6.597,-4.32 -16.605,-6.82 -26.156,-6.82 -23.656,0 -37.984,15.465 -37.984,40.031 v 44.809 h -17.289 v 31.16 h 17.289 v 18.652 l 39.8,15.465 V 258.84 h 24.34 v -31.16 h -24.34" /><path
         id="path36"
         style="fill:#fff;fill-opacity:1;fill-rule:nonzero;stroke:none"
         d="M 349.293,238.727 C 280.75,235.965 225.848,179.34 225.848,110.133 c 0,-2.711 0.093,-5.485 0.285,-8.305 -66.121,1.231 -119.528,55.399 -119.528,121.809 0,29.781 10.872,58.449 30.61,80.722 11.84,13.352 23.777,33.633 26.387,51.629 h 129.656 c 2.609,-17.988 14.547,-38.265 26.387,-51.625 16.226,-18.304 26.605,-41.375 29.648,-65.636 z m 744.847,-4.618 h -34.01 v 54.903 c 0,12.621 -10.24,22.851 -22.86,22.851 h -55.536 c -12.621,0 -22.851,-10.23 -22.851,-22.851 V 161.84 c 0,-12.621 10.23,-22.852 22.851,-22.852 h 55.536 c 12.62,0 22.86,10.231 22.86,22.852 v 54.902 h 34.01 c 31.57,0 57.26,-25.687 57.26,-57.265 V 74.6328 c 0,-31.5781 -25.69,-57.2656 -57.26,-57.2656 H 74.6328 c -31.5781,0 -57.2656,25.6875 -57.2656,57.2656 V 605.504 c 0,28.453 23.1484,51.601 51.6016,51.601 h 98.8902 c 28.454,0 51.602,-23.148 51.602,-51.601 v -15.422 c -9.137,-3.5 -15.633,-12.324 -15.633,-22.691 V 551.164 C 167.945,540.66 141.723,507.52 141.723,468.238 V 362.934 h 8.511 c 0,-15.075 -11.777,-36.239 -23.418,-49.356 -21.992,-24.82 -34.1051,-56.765 -34.1051,-89.941 0,-74.836 60.8871,-135.7229 135.7231,-135.7229 1.886,0 3.754,0.0664 5.617,0.1406 l 7.535,0.3125 -0.926,7.4844 c -0.617,4.9764 -0.918,9.6484 -0.918,14.2814 0,63.305 51.5,114.805 114.809,114.805 0.398,0 0.797,-0.012 1.195,-0.028 l 8.582,-0.176 -0.476,7.532 c -1.911,29.992 -13.914,58.871 -33.809,81.312 -11.637,13.129 -23.414,34.297 -23.418,49.356 h 7.938 v 105.304 c 0,39.282 -26.219,72.422 -62.11,82.926 v 16.227 c 0,10.367 -6.492,19.191 -15.629,22.691 v 15.422 c 0,38.031 -30.937,68.969 -68.965,68.969 H 68.9688 C 30.9375,674.473 0,643.535 0,605.504 V 74.6328 C 0,33.4805 33.4805,0 74.6328,0 H 1094.14 c 41.15,0 74.63,33.4805 74.63,74.6328 v 84.8442 c 0,41.152 -33.48,74.632 -74.63,74.632" /></g></g></svg>